<?xml version="1.0" encoding="utf-8"?>
<!-- Generator: Adobe Illustrator 26.0.1, SVG Export Plug-In . SVG Version: 6.00 Build 0)  -->
<svg version="1.1" id="Capa_1" xmlns="http://www.w3.org/2000/svg" xmlns:xlink="http://www.w3.org/1999/xlink" x="0px" y="0px"
	 viewBox="0 0 150 150" style="enable-background:new 0 0 150 150;" xml:space="preserve">
<style type="text/css">
	.st0{fill:#1677F0;}
	.st1{fill:#FFFFFF;}
</style>
<g>
	<path class="st0" d="M142.5,75c0-37.3-30.2-67.5-67.5-67.5S7.5,37.7,7.5,75c0,33.7,24.7,61.6,57,66.7V94.5H47.3V75h17.1V60.1
		c0-16.9,10.1-26.3,25.5-26.3c7.4,0,15.1,1.3,15.1,1.3v16.6h-8.5c-8.4,0-11,5.2-11,10.5V75h18.7l-3,19.5H85.5v47.2
		C117.8,136.6,142.5,108.7,142.5,75z"/>
	<path class="st1" d="M101.3,94.5l3-19.5H85.5V62.3c0-5.3,2.6-10.5,11-10.5h8.5V35.2c0,0-7.7-1.3-15.1-1.3
		c-15.4,0-25.5,9.3-25.5,26.3V75H47.3v19.5h17.1v47.2c3.4,0.5,7,0.8,10.5,0.8s7.1-0.3,10.5-0.8V94.5H101.3z"/>
</g>
</svg>
