<?xml version="1.0" encoding="utf-8"?>
<!-- Generator: Adobe Illustrator 26.0.1, SVG Export Plug-In . SVG Version: 6.00 Build 0)  -->
<svg version="1.1" id="Capa_1" xmlns="http://www.w3.org/2000/svg" xmlns:xlink="http://www.w3.org/1999/xlink" x="0px" y="0px"
	 viewBox="0 0 150 150" style="enable-background:new 0 0 150 150;" xml:space="preserve">
<style type="text/css">
	.st0{display:none;}
	.st1{display:inline;fill:#1677F0;}
	.st2{display:inline;fill:#FFFFFF;}
	.st3{display:inline;}
	.st4{clip-path:url(#SVGID_00000085208424217980285370000002384469698278641281_);}
	.st5{fill:#FFFFFF;}
	.st6{display:inline;fill-rule:evenodd;clip-rule:evenodd;fill:#1D99EE;}
	.st7{fill:#EC1655;}
	.st8{fill:#0CBAC6;}
	.st9{display:inline;fill:#FD0000;}
	.st10{display:inline;fill:#2967B0;}
	.st11{fill:#FDFDFD;}
	.st12{fill:url(#SVGID_00000018202151067798558970000012876876588117486488_);}
	.st13{fill:#C1DAEA;}
	.st14{fill:#9CC6D9;}
</style>
<g class="st0">
	<path class="st1" d="M142.5,75c0-37.3-30.2-67.5-67.5-67.5S7.5,37.7,7.5,75c0,33.7,24.7,61.6,57,66.7V94.5H47.3V75h17.1V60.1
		c0-16.9,10.1-26.3,25.5-26.3c7.4,0,15.1,1.3,15.1,1.3v16.6h-8.5c-8.4,0-11,5.2-11,10.5V75h18.7l-3,19.5H85.5v47.2
		C117.8,136.6,142.5,108.7,142.5,75z"/>
	<path class="st2" d="M101.3,94.5l3-19.5H85.5V62.3c0-5.3,2.6-10.5,11-10.5h8.5V35.2c0,0-7.7-1.3-15.1-1.3
		c-15.4,0-25.5,9.3-25.5,26.3V75H47.3v19.5h17.1v47.2c3.4,0.5,7,0.8,10.5,0.8s7.1-0.3,10.5-0.8V94.5H101.3z"/>
</g>
<g class="st0">
	<g class="st3">
		<defs>
			<circle id="SVGID_1_" cx="75" cy="75" r="67.5"/>
		</defs>
		<clipPath id="SVGID_00000095302017127900995120000010875825786190309792_">
			<use xlink:href="#SVGID_1_"  style="overflow:visible;"/>
		</clipPath>
		<g style="clip-path:url(#SVGID_00000095302017127900995120000010875825786190309792_);">
			<defs>
				<rect id="SVGID_00000070840563499185115250000002701750559008798624_" x="2.5" y="2.5" width="145" height="145"/>
			</defs>
			<clipPath id="SVGID_00000021109422182119175130000000857429779827518137_">
				<use xlink:href="#SVGID_00000070840563499185115250000002701750559008798624_"  style="overflow:visible;"/>
			</clipPath>
			<g style="clip-path:url(#SVGID_00000021109422182119175130000000857429779827518137_);">
				
					<image style="overflow:visible;" width="304" height="303" xlink:href="BB4928EA.jpg"  transform="matrix(0.48 0 0 0.48 2.04 2.1141)">
				</image>
			</g>
		</g>
	</g>
	<g class="st3">
		<g>
			<path class="st5" d="M75,40.2c11.3,0,12.7,0,17.2,0.2c4.1,0.2,6.4,0.9,7.9,1.5c2,0.8,3.4,1.7,4.9,3.2c1.5,1.5,2.4,2.9,3.2,4.9
				c0.6,1.5,1.3,3.7,1.5,7.9c0.2,4.5,0.2,5.8,0.2,17.2s0,12.7-0.2,17.2c-0.2,4.1-0.9,6.4-1.5,7.9c-0.8,2-1.7,3.4-3.2,4.9
				c-1.5,1.5-2.9,2.4-4.9,3.2c-1.5,0.6-3.7,1.3-7.9,1.5c-4.5,0.2-5.8,0.2-17.2,0.2c-11.3,0-12.7,0-17.2-0.2
				c-4.1-0.2-6.4-0.9-7.9-1.5c-2-0.8-3.4-1.7-4.9-3.2c-1.5-1.5-2.4-2.9-3.2-4.9c-0.6-1.5-1.3-3.7-1.5-7.9c-0.2-4.5-0.2-5.8-0.2-17.2
				s0-12.7,0.2-17.2c0.2-4.1,0.9-6.4,1.5-7.9c0.8-2,1.7-3.4,3.2-4.9c1.5-1.5,2.9-2.4,4.9-3.2c1.5-0.6,3.7-1.3,7.9-1.5
				C62.3,40.2,63.7,40.2,75,40.2 M75,32.5c-11.5,0-13,0-17.5,0.3c-4.5,0.2-7.6,0.9-10.3,2c-2.8,1.1-5.2,2.5-7.5,4.9
				c-2.4,2.4-3.8,4.7-4.9,7.5c-1.1,2.7-1.8,5.8-2,10.3c-0.2,4.5-0.3,6-0.3,17.5c0,11.5,0,13,0.3,17.5c0.2,4.5,0.9,7.6,2,10.3
				c1.1,2.8,2.5,5.2,4.9,7.5c2.4,2.4,4.7,3.8,7.5,4.9c2.7,1.1,5.8,1.8,10.3,2c4.5,0.2,6,0.3,17.5,0.3c11.5,0,13,0,17.5-0.3
				c4.5-0.2,7.6-0.9,10.3-2c2.8-1.1,5.2-2.5,7.5-4.9c2.4-2.4,3.8-4.7,4.9-7.5c1.1-2.7,1.8-5.8,2-10.3c0.2-4.5,0.3-6,0.3-17.5
				s0-13-0.3-17.5c-0.2-4.5-0.9-7.6-2-10.3c-1.1-2.8-2.5-5.2-4.9-7.5c-2.4-2.4-4.7-3.8-7.5-4.9c-2.7-1.1-5.8-1.8-10.3-2
				C88,32.5,86.5,32.5,75,32.5L75,32.5z"/>
			<path class="st5" d="M75,53.2c-12.1,0-21.8,9.8-21.8,21.8S62.9,96.8,75,96.8c12.1,0,21.8-9.8,21.8-21.8S87.1,53.2,75,53.2z
				 M75,89.2c-7.8,0-14.2-6.3-14.2-14.2S67.2,60.8,75,60.8S89.2,67.2,89.2,75S82.8,89.2,75,89.2z"/>
			<circle class="st5" cx="97.7" cy="52.3" r="5.1"/>
		</g>
	</g>
</g>
<g class="st0">
	<circle class="st6" cx="75" cy="75" r="67.5"/>
	<g class="st3">
		<g>
			<path class="st5" d="M61.4,113.9c33,0,51-27.3,51-51c0-0.8,0-1.5-0.1-2.3c3.5-2.5,6.5-5.7,8.9-9.3c-3.2,1.4-6.7,2.4-10.3,2.8
				c3.7-2.2,6.5-5.7,7.9-9.9c-3.5,2.1-7.3,3.5-11.4,4.4c-3.3-3.5-7.9-5.7-13.1-5.7c-9.9,0-17.9,8-17.9,17.9c0,1.4,0.2,2.8,0.5,4.1
				C62,64.1,48.8,57,40,46.2c-1.5,2.6-2.4,5.7-2.4,9c0,6.2,3.2,11.7,8,14.9c-2.9-0.1-5.7-0.9-8.1-2.2c0,0.1,0,0.1,0,0.2
				c0,8.7,6.2,15.9,14.4,17.6c-1.5,0.4-3.1,0.6-4.7,0.6c-1.2,0-2.3-0.1-3.4-0.3c2.3,7.1,8.9,12.3,16.7,12.4
				c-6.1,4.8-13.9,7.7-22.3,7.7c-1.4,0-2.9-0.1-4.3-0.2C41.8,110.9,51.2,113.9,61.4,113.9"/>
		</g>
	</g>
</g>
<g class="st0">
	<circle class="st3" cx="75" cy="75" r="67.5"/>
	<g class="st3">
		<g>
			<path class="st5" d="M57,102.1c0.1,0.1,0.2,0.1,0.2,0.2c0.7,0.5,1.3,1.3,2,1.9c2.2,1.8,4.7,2.8,7.6,2.9
				c6.8,0.4,12.7-4.7,13.5-11.4c0-0.3,0-0.7,0-1c0-20.2,0-40.4,0-60.6c0-1.4,0-1.4,1.4-1.4c3.1,0,6.1,0,9.2,0c0.3,0,0.6-0.1,0.9,0.1
				c0,0,0,0,0.1,0c0.1,0.2,0.2,0.3,0.2,0.5c1.2,5.4,4,9.8,8.5,13.1c0.3,0.2,0.5,0.5,0.8,0.7c0.2,0.2,0.4,0.3,0.6,0.5
				c0.7,0.4,1.2,1.1,1.9,1.6c2.5,2.1,5.3,3.5,8.4,4.3c0.3,0.1,0.6,0.1,0.8,0.3c0,0,0,0,0.1,0c0.2,0.2,0.2,0.4,0.2,0.7
				c0,3.6,0,7.1,0,10.7c0,0.8-0.1,0.9-0.9,0.9c-2.6,0-5.2-0.3-7.7-0.9c-4.4-1-8.4-2.8-12.1-5.2c-0.2-0.1-0.4-0.4-0.6-0.3
				c-0.3,0.1-0.1,0.5-0.1,0.7c0,10,0,20,0,30.1c0,7-2.3,13.3-6.9,18.6c-4.9,5.7-11.1,9-18.5,9.9c-5.7,0.7-11.2-0.3-16.3-2.9
				c-0.8-0.4-1.6-0.9-2.4-1.5c-0.2-0.2-0.5-0.4-0.7-0.6c-1.8-1.5-3-3.4-4.2-5.3c-1.8-3-2.9-6.2-3.5-9.7c-0.3-2-0.5-4-0.4-5.9
				c0.4-6.4,2.5-12.1,6.6-17.1c3.5-4.2,7.8-7.1,12.9-8.8c2.1-0.7,4.3-1.2,6.6-1.3c0.4,0,0.8-0.1,1.3-0.1c0.2,0,0.4,0,0.6,0.1
				c0,0,0,0,0.1,0c0.1,0.2,0.1,0.4,0.1,0.6c0,3.6,0,7.2,0,10.8c0,0.1,0,0.3,0,0.4c0,0.4-0.2,0.5-0.5,0.4c-1-0.3-2-0.4-3-0.5
				c-1.6-0.1-3.1,0.1-4.6,0.7c-5,1.8-8,5.4-8.6,10.6c-0.6,5.2,1.4,9.3,5.7,12.3C56.3,101.6,56.6,101.8,57,102.1z"/>
			<path class="st7" d="M47.6,114.7c0.2-0.1,0.3,0.1,0.4,0.2c3.2,2,6.7,3.3,10.4,3.9c1.9,0.3,3.8,0.4,5.7,0.3c6.4-0.3,12-2.4,17-6.5
				c4.7-3.9,7.9-8.9,9.5-14.8c0.5-1.9,0.8-3.8,0.9-5.7c0.1-1.1,0.1-2.2,0.1-3.3c0-9.6,0-19.1,0-28.7c0-0.2,0-0.4,0-0.7
				c0.2-0.1,0.4,0.1,0.5,0.2c3.4,2.3,7.1,4.1,11.1,5.1c2.2,0.6,4.4,1,6.7,1.2c0.9,0.1,1.9,0.1,2.8,0.1c0.4,0,0.4,0,0.4-0.4
				c0-0.5,0-0.9,0-1.4c0-3.2,0-6.5,0-9.7c0-0.2,0-0.4,0-0.6c0.9,0.1,1.7,0.3,2.5,0.3c0.5,0,1.1,0.1,1.6,0.1c0.3,0,0.4,0.1,0.3,0.3
				c0,0.1,0,0.2,0,0.3c0,4.7,0,9.3,0,14c0,0.1,0,0.2,0,0.3c0,0.4,0,0.4-0.4,0.4c-1.5,0-2.9-0.1-4.4-0.3c-3-0.4-5.8-1.1-8.6-2.2
				c-2.7-1-5.2-2.4-7.5-4c-0.1-0.1-0.3-0.2-0.5-0.3c0,0.3,0,0.5,0,0.7c0,10.2,0,20.4,0,30.6c0,5.4-1.4,10.5-4.3,15.1
				c-3.5,5.6-8.4,9.5-14.6,11.7c-3.8,1.4-7.6,1.9-11.6,1.6c-6.7-0.5-12.6-3.1-17.5-7.6C47.9,115,47.8,114.8,47.6,114.7z"/>
			<path class="st8" d="M91.7,32.9c-0.2,0-0.4,0-0.6,0c-3.3,0-6.6,0-9.9,0c-0.8,0-0.8,0-0.8,0.7c0,20.1,0,40.2,0,60.3
				c0,1.4-0.1,2.8-0.5,4.1c-1.5,4.7-4.7,7.8-9.5,8.9c-5.2,1.2-9.6-0.4-13.1-4.4c-0.1-0.1-0.1-0.2-0.1-0.2c1,0.4,2,0.8,3.1,1
				c3.4,0.7,6.5,0.2,9.5-1.7c3.4-2.1,5.4-5.1,6.1-9c0.1-0.7,0.2-1.5,0.2-2.2c0-20.1,0-40.2,0-60.4c0-0.9-0.1-0.8,0.8-0.8
				c4.6,0,9.3,0,13.9,0c0.1,0,0.2,0,0.3,0c0.5,0,0.5,0,0.5,0.5C91.5,30.8,91.5,31.9,91.7,32.9z"/>
			<path class="st8" d="M66.9,65.9c-2.8,0.1-5.6,0.5-8.3,1.4c-3.9,1.3-7.4,3.3-10.4,6.1c-4,3.6-6.7,8.1-8.1,13.2
				c-0.5,1.8-0.8,3.7-1,5.6c-0.1,1.1-0.1,2.3,0,3.4c0.2,3.2,0.8,6.3,2,9.2c1.4,3.3,3.2,6.3,5.7,8.9c0,0.1,0.1,0.1,0.1,0.2
				c-0.6-0.2-1-0.6-1.5-1c-4.6-3.6-7.8-8.2-9.6-13.9c-0.6-2-1-3.9-1.2-6c-0.1-1.5-0.2-3-0.1-4.4c0.2-3.4,1-6.7,2.4-9.8
				c1.5-3.2,3.5-6.1,6-8.6c3-2.9,6.4-5.1,10.3-6.5c2.5-0.9,5-1.4,7.6-1.6c1.9-0.1,3.8-0.1,5.6,0.1c0.3,0,0.4,0.1,0.4,0.4
				C66.9,63.8,66.9,64.9,66.9,65.9z"/>
			<path class="st7" d="M57,102.1c-1.1-0.5-2.1-1.3-3-2.1c-2.3-2.2-3.6-4.8-3.9-7.9c-0.7-6.5,3.4-12.1,9.1-13.9
				c2.4-0.7,4.9-0.8,7.3-0.1c0.1,0,0.3,0.1,0.4,0.1c0.1-0.2,0-0.4,0-0.6c0-3.7,0-7.3,0-11c0-0.2,0-0.4,0-0.6c1.4-0.1,2.8,0,4.2,0.2
				c0.2,0,0.3,0.1,0.3,0.3c0,0.1,0,0.2,0,0.3c0,4.8,0,9.7,0,14.5c0,0.2,0,0.4-0.1,0.6c-0.6-0.1-1.3-0.3-1.9-0.4
				c-3.7-0.5-7.1,0.4-10.1,2.7c-2.6,2-4.2,4.7-4.7,8c-0.6,3.5,0.1,6.7,2.1,9.6C56.8,101.8,56.9,102,57,102.1z"/>
			<path class="st7" d="M101.3,47.2c-1.4-0.8-2.6-1.9-3.8-3c-3-3.1-5-6.8-5.8-11.1c0,0,0-0.1,0-0.1c1.3-0.1,2.6,0,3.9,0
				c0.2,0,0.3,0.1,0.3,0.3c0,0.1,0,0.2,0,0.3c-0.1,3.7,1,7,2.8,10.2c0.6,1.1,1.4,2.2,2.2,3.2C101.2,47,101.3,47.1,101.3,47.2z"/>
			<path class="st8" d="M113,54c-3.7-0.8-7-2.5-9.9-5c-0.4-0.4-0.9-0.7-1.2-1.2c0.1,0,0.2,0.1,0.3,0.1c2.3,1.3,4.7,2.1,7.3,2.6
				c1,0.2,2,0.3,3,0.3c0.4,0,0.4,0,0.4,0.4C113,52.1,113,53,113,54z"/>
		</g>
	</g>
</g>
<g class="st0">
	<circle class="st9" cx="75" cy="75" r="67.5"/>
	<path class="st2" d="M118.1,53.3c-1-3.9-4.1-6.9-8-8c-7-1.9-35.2-1.9-35.2-1.9s-28.1,0-35.2,1.9c-3.9,1-6.9,4.1-8,8
		C30,60.4,30,75,30,75s0,14.6,1.9,21.7c1,3.9,4.1,6.9,8,8c7,1.9,35.2,1.9,35.2,1.9s28.1,0,35.2-1.9c3.9-1,6.9-4.1,8-8
		C120,89.6,120,75,120,75S120,60.4,118.1,53.3z M66,88.5v-27L89.4,75L66,88.5z"/>
</g>
<g class="st0">
	<circle class="st10" cx="75" cy="75" r="67.5"/>
	<g class="st3">
		<g>
			<path class="st11" d="M80.2,65.8c1.1-1.2,2-2.5,3.2-3.6c3.5-3.3,7.6-5,12.5-4.9c2.7,0,5.3,0.2,7.8,1c5.9,1.7,9.3,5.7,10.9,11.5
				c1.2,4.3,1.4,8.7,1.5,13.1c0,9.3,0,18.6,0,28c0,0.9-0.2,1.1-1.1,1.1c-4.8,0-9.6,0-14.4,0c-0.8,0-1-0.3-1-1.1c0-8.9,0-17.7,0-26.6
				c0-2.2-0.1-4.4-0.8-6.6c-1.1-4-4-6-8.2-5.8c-5.7,0.3-8.7,3.1-9.4,8.9c-0.2,1.4-0.3,2.8-0.3,4.2c0,8.6,0,17.3,0,25.9
				c0,0.9-0.2,1.1-1.1,1.1c-4.8,0-9.7,0-14.5,0c-0.8,0-1-0.2-1-1c0-17.1,0-34.2,0-51.3c0-0.8,0.3-1,1.1-1c4.6,0,9.2,0,13.8,0
				c0.8,0,1.1,0.3,1,1.1C80.2,61.7,80.2,63.7,80.2,65.8z"/>
			<path class="st11" d="M53.9,85.3c0,8.5,0,16.9,0,25.4c0,0.9-0.2,1.2-1.2,1.2c-4.8-0.1-9.6,0-14.4,0c-0.8,0-1-0.2-1-1
				c0-17.1,0-34.2,0-51.3c0-0.7,0.2-1,0.9-1c4.9,0,9.7,0,14.6,0c0.9,0,1.1,0.4,1.1,1.2C53.9,68.3,53.9,76.8,53.9,85.3z"/>
			<path class="st11" d="M55.2,41.6c0,5.3-4.3,9.6-9.6,9.6c-5.2,0-9.6-4.3-9.6-9.5c0-5.3,4.3-9.6,9.6-9.6
				C50.9,32.1,55.2,36.4,55.2,41.6z"/>
		</g>
	</g>
</g>
<g>
	<g>
		
			<linearGradient id="SVGID_00000049927125669895044430000016901291307287503235_" gradientUnits="userSpaceOnUse" x1="75" y1="142.5" x2="75" y2="7.5">
			<stop  offset="0" style="stop-color:#0093D4"/>
			<stop  offset="1" style="stop-color:#00B0E5"/>
		</linearGradient>
		<circle style="fill:url(#SVGID_00000049927125669895044430000016901291307287503235_);" cx="75" cy="75" r="67.5"/>
		<path class="st13" d="M53.2,79.9l8,22.2c0,0,1,2.1,2.1,2.1c1.1,0,17-16.6,17-16.6L98,53.3L53.5,74.2L53.2,79.9z"/>
		<path class="st14" d="M63.8,85.6L62.3,102c0,0-0.6,5,4.4,0c5-5,9.8-8.9,9.8-8.9L63.8,85.6z"/>
		<g>
			<path class="st5" d="M53.3,80.7l-16.5-5.4c0,0-2-0.8-1.3-2.6c0.1-0.4,0.4-0.7,1.2-1.2C40.4,69,104.3,46,104.3,46s1.8-0.6,2.9-0.2
				c0.5,0.2,0.8,0.4,1.1,1.2c0.1,0.3,0.2,0.9,0.1,1.5c0,0.4-0.1,0.8-0.1,1.4c-0.4,6.3-12,53.2-12,53.2s-0.7,2.7-3.2,2.8
				c-0.9,0-2-0.2-3.3-1.3c-4.9-4.2-21.8-15.6-25.6-18.1c-0.2-0.1-0.3-0.3-0.3-0.5c-0.1-0.3,0.2-0.6,0.2-0.6s29.5-26.2,30.3-29
				c0.1-0.2-0.2-0.3-0.5-0.2c-2,0.7-35.9,22.2-39.7,24.5C54,80.8,53.3,80.7,53.3,80.7z"/>
		</g>
	</g>
</g>
</svg>
