<?xml version="1.0" encoding="utf-8"?>
<!-- Generator: Adobe Illustrator 26.0.1, SVG Export Plug-In . SVG Version: 6.00 Build 0)  -->
<svg version="1.1" id="Capa_1" xmlns="http://www.w3.org/2000/svg" xmlns:xlink="http://www.w3.org/1999/xlink" x="0px" y="0px"
	 viewBox="0 0 150 150" style="enable-background:new 0 0 150 150;" xml:space="preserve">
<style type="text/css">
	.st0{display:none;}
	.st1{display:inline;fill:#1677F0;}
	.st2{display:inline;fill:#FFFFFF;}
	.st3{display:inline;}
	.st4{clip-path:url(#SVGID_00000041976883212530370280000006213200181846428842_);}
	.st5{fill:#FFFFFF;}
	.st6{fill-rule:evenodd;clip-rule:evenodd;fill:#1D99EE;}
</style>
<g class="st0">
	<path class="st1" d="M142.5,75c0-37.3-30.2-67.5-67.5-67.5S7.5,37.7,7.5,75c0,33.7,24.7,61.6,57,66.7V94.5H47.3V75h17.1V60.1
		c0-16.9,10.1-26.3,25.5-26.3c7.4,0,15.1,1.3,15.1,1.3v16.6h-8.5c-8.4,0-11,5.2-11,10.5V75h18.7l-3,19.5H85.5v47.2
		C117.8,136.6,142.5,108.7,142.5,75z"/>
	<path class="st2" d="M101.3,94.5l3-19.5H85.5V62.3c0-5.3,2.6-10.5,11-10.5h8.5V35.2c0,0-7.7-1.3-15.1-1.3
		c-15.4,0-25.5,9.3-25.5,26.3V75H47.3v19.5h17.1v47.2c3.4,0.5,7,0.8,10.5,0.8s7.1-0.3,10.5-0.8V94.5H101.3z"/>
</g>
<g class="st0">
	<g class="st3">
		<defs>
			<circle id="SVGID_1_" cx="75" cy="75" r="67.5"/>
		</defs>
		<clipPath id="SVGID_00000013885534286733341000000003876517414496497038_">
			<use xlink:href="#SVGID_1_"  style="overflow:visible;"/>
		</clipPath>
		<g style="clip-path:url(#SVGID_00000013885534286733341000000003876517414496497038_);">
			<defs>
				<rect id="SVGID_00000106137211559379696860000002898356966037379996_" x="2.5" y="2.5" width="145" height="145"/>
			</defs>
			<clipPath id="SVGID_00000116921884182491223810000013326179735822554302_">
				<use xlink:href="#SVGID_00000106137211559379696860000002898356966037379996_"  style="overflow:visible;"/>
			</clipPath>
			<g style="clip-path:url(#SVGID_00000116921884182491223810000013326179735822554302_);">
				
					<image style="overflow:visible;" width="304" height="303" xlink:href="495AAB81.jpg"  transform="matrix(0.48 0 0 0.48 2.04 2.1141)">
				</image>
			</g>
		</g>
	</g>
	<g class="st3">
		<g>
			<path class="st5" d="M75,40.2c11.3,0,12.7,0,17.2,0.2c4.1,0.2,6.4,0.9,7.9,1.5c2,0.8,3.4,1.7,4.9,3.2c1.5,1.5,2.4,2.9,3.2,4.9
				c0.6,1.5,1.3,3.7,1.5,7.9c0.2,4.5,0.2,5.8,0.2,17.2s0,12.7-0.2,17.2c-0.2,4.1-0.9,6.4-1.5,7.9c-0.8,2-1.7,3.4-3.2,4.9
				c-1.5,1.5-2.9,2.4-4.9,3.2c-1.5,0.6-3.7,1.3-7.9,1.5c-4.5,0.2-5.8,0.2-17.2,0.2c-11.3,0-12.7,0-17.2-0.2
				c-4.1-0.2-6.4-0.9-7.9-1.5c-2-0.8-3.4-1.7-4.9-3.2c-1.5-1.5-2.4-2.9-3.2-4.9c-0.6-1.5-1.3-3.7-1.5-7.9c-0.2-4.5-0.2-5.8-0.2-17.2
				s0-12.7,0.2-17.2c0.2-4.1,0.9-6.4,1.5-7.9c0.8-2,1.7-3.4,3.2-4.9c1.5-1.5,2.9-2.4,4.9-3.2c1.5-0.6,3.7-1.3,7.9-1.5
				C62.3,40.2,63.7,40.2,75,40.2 M75,32.5c-11.5,0-13,0-17.5,0.3c-4.5,0.2-7.6,0.9-10.3,2c-2.8,1.1-5.2,2.5-7.5,4.9
				c-2.4,2.4-3.8,4.7-4.9,7.5c-1.1,2.7-1.8,5.8-2,10.3c-0.2,4.5-0.3,6-0.3,17.5c0,11.5,0,13,0.3,17.5c0.2,4.5,0.9,7.6,2,10.3
				c1.1,2.8,2.5,5.2,4.9,7.5c2.4,2.4,4.7,3.8,7.5,4.9c2.7,1.1,5.8,1.8,10.3,2c4.5,0.2,6,0.3,17.5,0.3c11.5,0,13,0,17.5-0.3
				c4.5-0.2,7.6-0.9,10.3-2c2.8-1.1,5.2-2.5,7.5-4.9c2.4-2.4,3.8-4.7,4.9-7.5c1.1-2.7,1.8-5.8,2-10.3c0.2-4.5,0.3-6,0.3-17.5
				s0-13-0.3-17.5c-0.2-4.5-0.9-7.6-2-10.3c-1.1-2.8-2.5-5.2-4.9-7.5c-2.4-2.4-4.7-3.8-7.5-4.9c-2.7-1.1-5.8-1.8-10.3-2
				C88,32.5,86.5,32.5,75,32.5L75,32.5z"/>
			<path class="st5" d="M75,53.2c-12.1,0-21.8,9.8-21.8,21.8S62.9,96.8,75,96.8c12.1,0,21.8-9.8,21.8-21.8S87.1,53.2,75,53.2z
				 M75,89.2c-7.8,0-14.2-6.3-14.2-14.2S67.2,60.8,75,60.8S89.2,67.2,89.2,75S82.8,89.2,75,89.2z"/>
			<circle class="st5" cx="97.7" cy="52.3" r="5.1"/>
		</g>
	</g>
</g>
<g>
	<circle class="st6" cx="75" cy="75" r="67.5"/>
	<g>
		<g>
			<path class="st5" d="M61.4,113.9c33,0,51-27.3,51-51c0-0.8,0-1.5-0.1-2.3c3.5-2.5,6.5-5.7,8.9-9.3c-3.2,1.4-6.7,2.4-10.3,2.8
				c3.7-2.2,6.5-5.7,7.9-9.9c-3.5,2.1-7.3,3.5-11.4,4.4c-3.3-3.5-7.9-5.7-13.1-5.7c-9.9,0-17.9,8-17.9,17.9c0,1.4,0.2,2.8,0.5,4.1
				C62,64.1,48.8,57,40,46.2c-1.5,2.6-2.4,5.7-2.4,9c0,6.2,3.2,11.7,8,14.9c-2.9-0.1-5.7-0.9-8.1-2.2c0,0.1,0,0.1,0,0.2
				c0,8.7,6.2,15.9,14.4,17.6c-1.5,0.4-3.1,0.6-4.7,0.6c-1.2,0-2.3-0.1-3.4-0.3c2.3,7.1,8.9,12.3,16.7,12.4
				c-6.1,4.8-13.9,7.7-22.3,7.7c-1.4,0-2.9-0.1-4.3-0.2C41.8,110.9,51.2,113.9,61.4,113.9"/>
		</g>
	</g>
</g>
</svg>
